# xmcd
#
# Track frame offsets: 
#        183
#        8935
#        23058
#        35608
#        48235
#        62133
#        70990
#        87745
#        103220
#        113445
#        127525
#        141273
#
# Disc length: 2005 seconds
#
# Revision: 0
# Processed by: cddbd v1.4PL0 Copyright (c) Steve Scherf et al.
# Submitted via: ExactAudioCopy v0.90b4
#
DISCID=9f07d30c
DTITLE=The Blackbirds - Goed gestemd
DYEAR=1989
DGENRE=Ballad
TTITLE0=Everybody Loves My Baby
TTITLE1=Top Hat
TTITLE2=In A Sentimental Mood
TTITLE3=Swannee
TTITLE4=I'm Gonna Sit Right Down
TTITLE5=The Tiger Rag
TTITLE6=Chanson D'amour
TTITLE7=Do U Lie
TTITLE8=The World Is Waiting
TTITLE9=I Ain't Gonna Give Nobody
TTITLE10=Cheek To Cheek
TTITLE11=Bye Bye Blues
EXTD=
EXTT0=
EXTT1=
EXTT2=
EXTT3=
EXTT4=
EXTT5=
EXTT6=
EXTT7=
EXTT8=
EXTT9=
EXTT10=
EXTT11=
PLAYORDER=
